<svg xmlns="http://www.w3.org/2000/svg" id="Layer_2" data-name="Layer 2" viewBox="0 0 198 49"><defs><style>.cls-1{fill:#172643;stroke-width:0px;}</style></defs><g id="Layer_1-2" data-name="Layer 1"><g><path class="cls-1" d="M76.9,4.2c.18-.68.25-1.31.21-1.87-.04-.56-.21-1.06-.51-1.47-.3-.42-.77-.68-1.4-.8-.48-.08-.89-.07-1.24.03-.35.1-.63.26-.85.49-.22.23-.37.49-.46.8-.09.31-.12.63-.07.97.06.52.21.95.46,1.31.25.36.49.7.72,1.04.23.34.39.71.49,1.13.1.42.03.94-.21,1.58l-4.39,11.21-5.53-14.95c-.2-.58-.32-.99-.36-1.25-.04-.26.04-.46.24-.59.16-.1.28-.17.37-.22.09-.05.13-.14.13-.28,0-.24-.19-.35-.57-.33-.28.02-.67.04-1.18.06-.51.02-1.13.03-1.87.03s-1.34-.01-1.87-.03c-.53-.02-.93-.04-1.21-.06-.38-.02-.57.09-.57.33,0,.12.05.22.15.28.1.07.23.13.39.19.28.08.53.25.75.51.22.26.47.71.75,1.37l7.56,18.9c.14.32.34.42.6.3l1.76-.53v-.03l.12-.03c.22-.06.38-.2.48-.42l6.36-15.63c.32-.65.57-1.32.75-2.01Z"/><path class="cls-1" d="M75.28,20.8c-.29.52-.61.82-.97.92-.16.06-.29.12-.39.19-.1.07-.15.16-.15.28,0,.24.19.35.57.33.28-.02.59-.03.94-.04.35,0,.68-.01,1-.01.68,0,1.28,0,1.81.01.53.01.93.03,1.21.04.36.02.54-.09.54-.33,0-.22-.17-.38-.51-.48-.82-.12-1.3-.43-1.46-.94-.16-.51-.07-1.29.27-2.36l.9-2.79h8.13l1.37,4.22c.18.58.27,1.01.25,1.29-.01.29-.15.49-.43.61-.14.06-.25.12-.33.18-.08.06-.12.15-.12.27,0,.24.18.35.54.33.28-.02.67-.04,1.17-.06.5-.02,1.15-.03,1.94-.03.84,0,1.48.01,1.94.03.46.02.83.04,1.11.06.38.02.57-.09.57-.33,0-.12-.05-.21-.15-.28-.1-.07-.23-.13-.39-.19-.32-.1-.56-.29-.72-.58-.16-.29-.33-.72-.51-1.29l-6.57-18.31c-.06-.22-.23-.35-.51-.39-.26,0-.81-.06-1.64-.18-.5-.08-.91-.18-1.22-.31-.32-.13-.59-.14-.81-.04-.12.06-.18.15-.18.27l-6.21,17.54c-.36,1.07-.68,1.86-.97,2.38ZM83.06,3.11l3.7,11.29h-7.35l3.64-11.29Z"/><path class="cls-1" d="M97.79,20.99c-.06.33-.23.56-.51.7-.16.08-.3.16-.4.22-.11.07-.16.16-.16.28,0,.22.18.33.54.33h11.44c1,0,1.77,0,2.32.01.55.01.96.03,1.24.07.4.04.61-.12.63-.48.06-.73.12-1.42.19-2.07.07-.64.15-1.33.25-2.07.04-.38-.07-.56-.33-.56-.3-.04-.5.11-.6.45-.18.55-.36,1.05-.55,1.47-.19.43-.42.78-.69,1.07-.27.29-.6.51-.99.65-.39.15-.88.22-1.48.22h-4.93c-.4,0-.67-.08-.82-.25-.15-.17-.22-.45-.22-.85v-8.56h2.63c.66,0,1.21.04,1.64.12.44.08.79.21,1.06.39.27.18.47.4.6.67.13.27.21.58.25.94.02.38.18.56.48.56s.42-.21.36-.62c-.02-.26-.03-.59-.04-1.01-.01-.42-.01-.96-.01-1.63s0-1.22.01-1.65.03-.78.04-1.06c.06-.42-.06-.62-.36-.62-.26,0-.42.17-.48.51-.04.38-.12.71-.25.98-.13.28-.33.51-.6.7-.27.19-.62.33-1.06.42-.44.09-.99.13-1.64.13h-2.63V2.19h5.74c.6,0,1.08.04,1.45.12.37.08.68.23.94.45.26.22.47.51.64.88.17.37.34.84.52,1.41.12.34.32.49.6.45.28,0,.39-.19.33-.56-.04-.36-.07-.67-.1-.95s-.06-.55-.07-.82c-.02-.27-.03-.55-.05-.83-.01-.29-.03-.61-.07-.97-.02-.36-.24-.52-.66-.48-.28.04-.69.06-1.24.07-.55.01-1.31.01-2.29.01h-11.17c-.22,0-.37.03-.45.09-.08.06-.12.15-.12.27,0,.1.06.18.16.25.11.07.24.14.4.22.28.14.45.36.51.67.06.31.09.78.09,1.41v15.72c0,.59-.03,1.06-.09,1.38Z"/><path class="cls-1" d="M135.61,22.2c0-.12-.05-.21-.15-.28-.1-.07-.23-.13-.39-.19-.34-.1-.65-.29-.93-.58s-.59-.72-.93-1.29l-6.81-11.74,1.58-1.96c.46-.69.87-1.16,1.24-1.4.37-.24.72-.36,1.06-.36.36,0,.71.06,1.06.19.35.13.72.16,1.12.1.6-.06,1.08-.25,1.43-.58.36-.33.57-.7.64-1.13.07-.43-.01-.85-.24-1.26-.23-.42-.63-.72-1.21-.92-.24-.06-.48-.09-.72-.09-.66,0-1.31.22-1.97.65-.66.43-1.22.99-1.7,1.66l-7.14,9.39V3.65c0-.52.03-.93.11-1.25.07-.32.24-.52.52-.62.16-.08.29-.15.39-.21s.15-.15.15-.27c0-.24-.19-.35-.57-.33-.28.02-.67.04-1.18.06-.51.02-1.12.03-1.84.03s-1.36-.01-1.85-.03c-.5-.02-.88-.04-1.16-.06-.38-.02-.57.09-.57.33,0,.12.04.21.13.27.09.06.21.13.37.21.3.1.48.31.55.62s.1.73.1,1.25v16.2c0,.52-.03.93-.1,1.25s-.25.52-.55.62c-.16.08-.28.15-.37.21-.09.06-.13.15-.13.27,0,.24.19.35.57.33.28-.02.67-.04,1.16-.06.5-.02,1.12-.03,1.85-.03s1.33.01,1.84.03c.51.02.9.04,1.18.06.38.02.57-.09.57-.33,0-.12-.05-.21-.15-.27-.1-.06-.23-.13-.39-.21-.28-.1-.45-.31-.52-.62-.07-.32-.11-.73-.11-1.25v-5.65l2-2.5,4.6,8.14c.22.4.38.77.49,1.1.11.34.09.58-.07.74-.14.12-.25.2-.33.25-.08.05-.12.13-.12.25,0,.24.18.35.54.33.28-.02.67-.04,1.18-.06.51-.02,1.13-.03,1.87-.03s1.43.01,2.02.03c.59.02,1.02.04,1.3.06.38.02.57-.09.57-.33Z"/><path class="cls-1" d="M137.99,21.1c.71.52,1.63.95,2.78,1.29,1.15.35,2.54.52,4.2.52,1.81,0,3.29-.21,4.42-.64,1.14-.43,2.02-.97,2.66-1.62.64-.65,1.08-1.37,1.33-2.14.25-.77.38-1.5.4-2.17.04-1.15-.2-2.11-.72-2.87-.52-.76-1.19-1.41-2.03-1.93-.84-.52-1.77-.97-2.81-1.34-1.03-.37-2.05-.74-3.05-1.11-1-.38-1.92-.8-2.76-1.26-.85-.46-1.49-1.06-1.93-1.77-.28-.49-.37-1.02-.28-1.58.09-.55.32-1.07.7-1.55.38-.48.88-.87,1.51-1.17.63-.31,1.34-.44,2.14-.4.85.02,1.52.17,1.99.45.47.28.83.61,1.09,1.01.26.4.45.82.58,1.26s.28.86.45,1.23c.17.38.4.69.69.95.29.26.71.39,1.27.39s.97-.15,1.3-.45c.33-.3.51-.67.55-1.13.04-.46-.07-.94-.34-1.46-.27-.52-.71-1-1.33-1.46-.62-.46-1.43-.83-2.43-1.13-1-.3-2.23-.45-3.66-.45-1.24,0-2.36.15-3.38.46-1.02.31-1.88.74-2.6,1.31-.72.56-1.27,1.23-1.64,1.99-.38.76-.57,1.61-.57,2.54.02,1.13.31,2.07.87,2.81.56.74,1.26,1.36,2.11,1.86.85.49,1.78.92,2.81,1.28,1.03.36,2,.72,2.93,1.08.93.37,1.75.78,2.48,1.25.73.46,1.22,1.07,1.48,1.8.2.58.24,1.17.12,1.78-.12.61-.36,1.17-.73,1.68-.37.51-.86.92-1.48,1.23-.62.32-1.33.48-2.15.48-1.04,0-1.86-.17-2.47-.51-.61-.34-1.07-.76-1.4-1.26-.33-.51-.58-1.05-.76-1.63-.18-.58-.36-1.11-.55-1.59-.19-.48-.44-.86-.75-1.16-.31-.3-.77-.42-1.39-.36-.48.06-.86.28-1.15.65-.29.38-.44.84-.45,1.38-.01.55.14,1.13.45,1.74.31.61.82,1.18,1.52,1.69Z"/><path class="cls-1" d="M154.64,6.12c.28,0,.48-.16.6-.48.2-.55.39-1.04.58-1.47.19-.43.42-.79.69-1.08.27-.3.59-.52.97-.67s.87-.22,1.46-.22h2.12v17.65c0,.52-.04.93-.12,1.25-.08.32-.26.52-.54.62-.16.08-.28.15-.37.21-.09.06-.13.15-.13.27,0,.24.18.35.54.33.28-.02.67-.04,1.17-.06.5-.02,1.12-.03,1.85-.03s1.36.01,1.87.03c.51.02.9.04,1.18.06.36.02.54-.09.54-.33,0-.12-.04-.21-.13-.27-.09-.06-.22-.13-.37-.21-.28-.1-.46-.31-.54-.62-.08-.32-.12-.73-.12-1.25V2.19h2.12c.6,0,1.09.07,1.46.22s.7.37.97.67c.27.3.5.66.69,1.08.19.43.38.92.58,1.47.12.32.31.48.57.48.3-.04.42-.24.36-.59-.06-.4-.11-.76-.15-1.08-.04-.33-.08-.65-.12-.98-.04-.33-.07-.66-.1-1-.03-.34-.06-.7-.07-1.1-.02-.36-.24-.52-.66-.48-.32.02-.72.04-1.21.06-.49.02-1.26.03-2.32.03h-10.41c-.37,0-.69,0-.96-.01-.27-.01-.5-.02-.69-.03-.19-.01-.36-.03-.52-.04-.42-.04-.64.12-.66.48-.02.4-.04.76-.07,1.1-.03.34-.06.67-.11,1-.04.33-.08.65-.12.98-.04.33-.09.69-.15,1.08-.06.36.05.55.33.59Z"/><path class="cls-1" d="M130.18,28.26c-1-.58-2.14-.99-3.39-1.22-1.25-.23-2.51-.34-3.76-.34h-7.02c-.18.02-.3.06-.36.12-.06.06-.09.14-.09.24s.06.18.16.25c.11.07.24.14.4.22.28.14.45.36.51.67.06.31.09.78.09,1.41v15.72c0,.59-.03,1.06-.09,1.38-.06.33-.23.56-.51.7l-.12.06c-.3.14-.45.29-.45.45,0,.24.19.35.57.33.28-.02.67-.04,1.18-.06.51-.02,1.12-.03,1.84-.03s1.37.01,1.9.03c.53.02.96.04,1.3.06.4.02.6-.09.6-.33,0-.12-.05-.21-.15-.28-.1-.07-.23-.13-.39-.19-.36-.1-.59-.31-.69-.62-.1-.32-.15-.73-.15-1.25v-3.36h1.46c.84,0,1.68-.03,2.53-.09.85-.06,1.66-.19,2.43-.39.78-.2,1.5-.47,2.18-.82.68-.35,1.27-.81,1.78-1.4s.91-1.29,1.2-2.13c.29-.83.43-1.82.43-2.97,0-1.55-.31-2.81-.94-3.8-.63-.99-1.44-1.78-2.45-2.36ZM123.03,41.02h-1.46v-13.11h1.46c1.69,0,3.05.54,4.06,1.62,1.02,1.08,1.52,2.71,1.52,4.89,0,4.4-1.86,6.6-5.59,6.6Z"/><path class="cls-1" d="M141.31,28.12c.08-.32.26-.52.54-.62.16-.08.28-.15.37-.21.09-.06.13-.15.13-.27,0-.24-.18-.35-.54-.33-.28.02-.67.04-1.18.06-.51.02-1.13.03-1.87.03s-1.36-.01-1.85-.03c-.5-.02-.88-.04-1.16-.06-.36-.02-.54.09-.54.33,0,.12.04.21.14.27.09.06.21.13.37.21.28.1.46.31.54.62.08.32.12.73.12,1.25v16.2c0,.52-.04.93-.12,1.25-.08.32-.26.52-.54.62-.16.08-.28.15-.37.21-.09.06-.14.15-.14.27,0,.24.18.35.54.33.28-.02.67-.04,1.16-.06.5-.02,1.12-.03,1.85-.03s1.36.01,1.87.03c.51.02.9.04,1.18.06.36.02.54-.09.54-.33,0-.12-.04-.21-.13-.27-.09-.06-.21-.13-.37-.21-.28-.1-.46-.31-.54-.62-.08-.32-.12-.73-.12-1.25v-16.2c0-.52.04-.93.12-1.25Z"/><path class="cls-1" d="M160.89,29.89c.19.43.38.92.58,1.47.12.32.31.48.57.48.3-.04.42-.24.36-.59-.06-.4-.11-.76-.15-1.08-.04-.33-.08-.65-.12-.98-.04-.33-.07-.66-.1-1-.03-.34-.06-.7-.07-1.1-.02-.36-.24-.52-.66-.48-.32.02-.72.04-1.21.06-.49.02-1.26.03-2.32.03h-10.41c-.37,0-.69,0-.96-.01-.27-.01-.5-.02-.69-.03-.19-.01-.36-.03-.52-.04-.42-.04-.64.12-.66.48-.02.4-.04.76-.07,1.1-.03.34-.06.67-.1,1-.04.33-.08.65-.12.98-.04.33-.09.69-.15,1.08-.06.36.05.55.33.59.28,0,.48-.16.6-.48.2-.55.39-1.04.58-1.47.19-.43.42-.79.69-1.08.27-.3.59-.52.97-.67.38-.15.87-.22,1.46-.22h2.12v17.65c0,.52-.04.93-.12,1.25s-.26.52-.54.62c-.16.08-.28.15-.37.21-.09.06-.14.15-.14.27,0,.24.18.35.54.33.28-.02.67-.04,1.16-.06.5-.02,1.12-.03,1.85-.03s1.36.01,1.87.03.9.04,1.18.06c.36.02.54-.09.54-.33,0-.12-.04-.21-.13-.27-.09-.06-.21-.13-.37-.21-.28-.1-.46-.31-.54-.62-.08-.32-.12-.73-.12-1.25v-17.65h2.12c.6,0,1.09.07,1.46.22.38.15.7.37.97.67.27.3.5.66.69,1.08Z"/><path class="cls-1" d="M180.89,47.44c-.32-.1-.56-.29-.72-.58-.16-.29-.33-.72-.51-1.29l-6.57-18.31c-.06-.22-.23-.35-.51-.39-.26,0-.81-.06-1.64-.18-.5-.08-.91-.18-1.23-.31-.32-.13-.59-.14-.81-.04-.12.06-.18.15-.18.27l-6.21,17.54c-.36,1.07-.68,1.86-.97,2.38-.29.52-.61.82-.97.92-.16.06-.29.12-.39.19-.1.07-.15.16-.15.28,0,.24.19.35.57.33.28-.02.59-.03.94-.04.35-.01.68-.01,1-.01.68,0,1.28,0,1.81.01.53.01.93.03,1.21.04.36.02.54-.09.54-.33,0-.22-.17-.38-.51-.48-.82-.12-1.3-.43-1.46-.94-.16-.51-.07-1.29.27-2.36l.9-2.79h8.13l1.37,4.22c.18.58.26,1.01.25,1.29-.01.29-.15.49-.43.61-.14.06-.25.12-.33.18-.08.06-.12.15-.12.27,0,.24.18.35.54.33.28-.02.67-.04,1.16-.06.5-.02,1.15-.03,1.94-.03.84,0,1.48.01,1.94.03s.82.04,1.11.06c.38.02.57-.09.57-.33,0-.12-.05-.21-.15-.28-.1-.07-.23-.13-.39-.19ZM165.69,40.13l3.65-11.29,3.7,11.29h-7.35Z"/><path class="cls-1" d="M197.68,43.16c-.3-.04-.51.11-.63.45-.18.55-.36,1.04-.55,1.47-.19.43-.42.78-.69,1.07-.27.29-.6.51-.99.65-.39.15-.88.22-1.48.22h-3.32c-.4,0-.67-.08-.82-.25-.15-.17-.22-.45-.22-.85v-16.55c0-.52.03-.93.1-1.25s.24-.52.52-.62c.16-.08.29-.15.39-.21.1-.06.15-.15.15-.27,0-.24-.19-.35-.57-.33-.28.02-.67.04-1.18.06-.51.02-1.12.03-1.84.03s-1.35-.01-1.85-.03c-.5-.02-.88-.04-1.16-.06-.38-.02-.57.09-.57.33v.03c0,.06.02.11.06.15.04.06.09.11.15.15.06.04.13.08.21.12.02,0,.07.02.15.06.28.14.45.36.51.67.06.31.09.78.09,1.41v15.72c0,.59-.03,1.06-.09,1.38-.06.33-.23.56-.51.7-.16.08-.29.15-.4.22-.11.07-.17.16-.17.28,0,.22.18.33.54.33h9.83c1,0,1.77,0,2.32.01s.96.03,1.24.07c.42.04.64-.12.66-.48.06-.73.12-1.42.18-2.07.06-.64.14-1.33.24-2.07.06-.38-.04-.56-.3-.56Z"/><path class="cls-1" d="M113.87,47.44c-.32-.1-.56-.29-.72-.58-.16-.29-.33-.72-.51-1.29l-6.57-18.31c-.06-.22-.23-.35-.51-.39-.26,0-.81-.06-1.64-.18-.5-.08-.91-.18-1.22-.31-.32-.13-.59-.14-.81-.04-.12.06-.18.15-.18.27l-6.21,17.54c-.36,1.07-.68,1.86-.97,2.38s-.61.82-.97.92c-.18.03-.26.04-.43,0-.34-.1-.65-.29-.93-.58-.28-.29-.59-.72-.93-1.29l-6.81-11.74,1.58-1.96c.46-.69.87-1.16,1.24-1.4.37-.24.72-.36,1.06-.36.36,0,.71.06,1.06.19.35.13.72.16,1.12.1.6-.06,1.08-.25,1.43-.58.36-.33.57-.7.64-1.13.07-.43-.01-.85-.24-1.26-.23-.42-.63-.72-1.21-.92-.24-.06-.48-.09-.72-.09-.66,0-1.31.22-1.97.65-.66.43-1.22.99-1.7,1.66l-7.14,9.39v-8.77c0-.52.03-.93.1-1.25.07-.32.24-.52.52-.62.16-.08.29-.15.39-.21.1-.06.15-.15.15-.27,0-.24-.19-.35-.57-.33-.28.02-.67.04-1.18.06-.51.02-1.12.03-1.84.03s-1.36-.01-1.85-.03c-.5-.02-.89-.04-1.17-.06-.38-.02-.57.09-.57.33,0,.12.04.21.13.27.09.06.21.13.37.21.3.1.48.31.55.62.07.32.1.73.1,1.25v16.2c0,.52-.03.93-.1,1.25-.07.32-.25.52-.55.62-.16.08-.28.15-.37.21-.09.06-.13.15-.13.27,0,.24.19.35.57.33.28-.02.67-.04,1.17-.06.5-.02,1.12-.03,1.85-.03s1.33.01,1.84.03c.51.02.9.04,1.18.06.38.02.57-.09.57-.33,0-.12-.05-.21-.15-.27-.1-.06-.23-.13-.39-.21-.28-.1-.45-.31-.52-.62-.07-.32-.1-.73-.1-1.25v-5.65l2-2.5,4.6,8.14c.22.4.38.76.49,1.1s.09.58-.07.74c-.14.12-.25.2-.33.25-.08.05-.12.13-.12.25,0,.24.18.35.54.33.52-.02,1.27-.04,2.21-.06.94-.02,2.1-.03,3.47-.03s2.65.01,3.74.03c1.09.02,1.87.04,2.39.06.36.02.54-.09.54-.33,0-.22-.17-.38-.51-.48-.82-.12-1.3-.43-1.46-.94-.16-.51-.07-1.29.27-2.36l.9-2.79h8.13l1.37,4.22c.18.58.26,1.01.25,1.29-.01.29-.15.49-.43.61-.14.06-.25.12-.33.18-.08.06-.12.15-.12.27,0,.24.18.35.54.33.28-.02.67-.04,1.17-.06.5-.02,1.15-.03,1.94-.03.84,0,1.48.01,1.94.03.46.02.83.04,1.11.06.38.02.57-.09.57-.33,0-.12-.05-.21-.15-.28-.1-.07-.23-.13-.39-.19h0ZM98.66,40.13l3.64-11.29,3.7,11.29h-7.35Z"/><path class="cls-1" d="M10.02,40.85c-1.06,1.06-1.06,2.76,0,3.82,1.06,1.06,2.78,1.06,3.84,0,1.06-1.06,1.06-2.76,0-3.82-1.06-1.06-2.78-1.06-3.84,0Z"/><path class="cls-1" d="M15.39,36.47c-.8.79-.8,2.07,0,2.86.8.79,2.08.79,2.88,0,.8-.79.8-2.07,0-2.86-.8-.79-2.08-.79-2.88,0Z"/><path class="cls-1" d="M19.76,32.83c-.6.59-.6,1.56,0,2.15.6.59,1.56.59,2.16,0,.6-.59.6-1.55,0-2.15-.6-.59-1.56-.59-2.16,0Z"/><path class="cls-1" d="M39.05,8.32c1.06-1.06,1.06-2.76,0-3.82-1.06-1.06-2.78-1.06-3.84,0-1.06,1.06-1.06,2.76,0,3.82,1.06,1.06,2.78,1.06,3.84,0Z"/><path class="cls-1" d="M33.69,9.84c-.8-.79-2.08-.79-2.88,0-.8.79-.8,2.07,0,2.86.8.79,2.08.79,2.88,0,.8-.79.8-2.07,0-2.86Z"/><path class="cls-1" d="M29.31,16.34c.6-.59.6-1.55,0-2.15-.6-.59-1.56-.59-2.16,0-.6.59-.6,1.55,0,2.15.6.59,1.56.59,2.16,0Z"/><path class="cls-1" d="M2.71,31.28c1.5,0,2.71-1.21,2.71-2.7s-1.22-2.7-2.71-2.7-2.71,1.21-2.71,2.7,1.22,2.7,2.71,2.7Z"/><path class="cls-1" d="M11.66,28.58c0-1.12-.91-2.02-2.04-2.02s-2.04.91-2.04,2.02.91,2.02,2.04,2.02,2.04-.91,2.04-2.02Z"/><path class="cls-1" d="M15.3,27.06c-.84,0-1.53.68-1.53,1.52s.68,1.52,1.53,1.52,1.53-.68,1.53-1.52-.68-1.52-1.53-1.52Z"/><path class="cls-1" d="M46.36,23.3c1.5,0,2.71-1.21,2.71-2.7s-1.22-2.7-2.71-2.7-2.71,1.21-2.71,2.7,1.22,2.7,2.71,2.7Z"/><path class="cls-1" d="M37.42,20.6c0,1.12.91,2.02,2.04,2.02s2.04-.91,2.04-2.02-.91-2.02-2.04-2.02-2.04.91-2.04,2.02Z"/><path class="cls-1" d="M33.78,22.12c.84,0,1.53-.68,1.53-1.52s-.68-1.52-1.53-1.52-1.53.68-1.53,1.52.68,1.52,1.53,1.52Z"/><path class="cls-1" d="M8.19,10.15c-1.06-1.06-2.78-1.06-3.84,0-1.06,1.06-1.06,2.76,0,3.82,1.06,1.06,2.78,1.06,3.84,0,1.06-1.06,1.06-2.76,0-3.82Z"/><path class="cls-1" d="M12.6,18.35c.8-.79.8-2.07,0-2.86-.8-.79-2.08-.79-2.88,0-.8.79-.8,2.07,0,2.86.8.79,2.08.79,2.88,0Z"/><path class="cls-1" d="M16.25,21.98c.6-.59.6-1.56,0-2.15-.6-.59-1.56-.59-2.16,0-.6.59-.6,1.56,0,2.15.6.59,1.56.59,2.16,0Z"/><path class="cls-1" d="M40.89,35.21c-1.06,1.06-1.06,2.76,0,3.82,1.06,1.06,2.78,1.06,3.84,0s1.06-2.76,0-3.82c-1.06-1.06-2.78-1.06-3.84,0Z"/><path class="cls-1" d="M36.48,30.83c-.8.79-.8,2.07,0,2.86.8.79,2.08.79,2.88,0,.8-.79.8-2.07,0-2.86-.8-.79-2.08-.79-2.88,0Z"/><path class="cls-1" d="M32.83,27.19c-.6.59-.6,1.56,0,2.15.6.59,1.56.59,2.16,0,.6-.59.6-1.55,0-2.15-.6-.59-1.56-.59-2.16,0Z"/><path class="cls-1" d="M20.53.18c-1.5,0-2.71,1.21-2.71,2.7s1.21,2.7,2.71,2.7,2.71-1.21,2.71-2.7S22.02.18,20.53.18Z"/><path class="cls-1" d="M20.53,7.72c-1.12,0-2.04.91-2.04,2.02s.91,2.02,2.04,2.02,2.04-.91,2.04-2.02-.91-2.04-2.04-2.02Z"/><path class="cls-1" d="M20.53,16.92c.84,0,1.53-.68,1.53-1.52s-.68-1.52-1.53-1.52-1.53.68-1.53,1.52.68,1.52,1.53,1.52Z"/><path class="cls-1" d="M28.55,43.6c-1.5,0-2.71,1.21-2.71,2.7s1.21,2.7,2.71,2.7,2.71-1.21,2.71-2.7-1.21-2.7-2.71-2.7Z"/><path class="cls-1" d="M28.55,41.45c1.12,0,2.04-.91,2.04-2.02s-.91-2.02-2.04-2.02-2.04.91-2.04,2.02.91,2.02,2.04,2.02Z"/><path class="cls-1" d="M28.55,35.3c.84,0,1.53-.68,1.53-1.52s-.68-1.52-1.53-1.52-1.53.68-1.53,1.52.68,1.52,1.53,1.52Z"/></g></g></svg>
